<svg width="360" height="112" viewBox="0 0 360 112" fill="none" xmlns="http://www.w3.org/2000/svg" role="img" aria-labelledby="title desc">
  <title id="title">Ocht wordmark</title>
  <desc id="desc">Ocht wordmark with a shield eight mark and the tagline Eight splits. One plan.</desc>
  <rect width="360" height="112" rx="18" fill="#F7FAF2"/>
  <path d="M60 14 L90.5 26.5 V55 C90.5 79 75.7 96.5 60 103 C44.3 96.5 29.5 79 29.5 55 V26.5 L60 14Z" fill="#C8FF2E"/>
  <path d="M60 31 C73.2 31 81.5 37.6 81.5 48.4 C81.5 55.9 77.4 60.8 69.9 63.3 C78.2 66.6 83.1 73.2 83.1 82.3 C83.1 94.7 73.2 102.2 60 102.2 C46.8 102.2 36.9 94.7 36.9 82.3 C36.9 73.2 41.8 66.6 50.1 63.3 C42.6 60.8 38.5 55.9 38.5 48.4 C38.5 37.6 46.8 31 60 31ZM60 40.1 C53.4 40.1 49.2 43.4 49.2 48.4 C49.2 53.4 53.4 56.7 60 56.7 C66.6 56.7 70.8 53.4 70.8 48.4 C70.8 43.4 66.6 40.1 60 40.1ZM60 70.8 C52.5 70.8 47.6 75 47.6 81.6 C47.6 88.2 52.5 92.3 60 92.3 C67.5 92.3 72.4 88.2 72.4 81.6 C72.4 75 67.5 70.8 60 70.8Z" fill="#0A1711"/>
  <text x="108" y="58" fill="#10130F" font-family="Arial, Helvetica, sans-serif" font-size="48" font-weight="900">Ocht</text>
  <text x="110" y="84" fill="#073F35" font-family="Arial, Helvetica, sans-serif" font-size="11" font-weight="900" letter-spacing="1.4">EIGHT SPLITS. ONE PLAN.</text>
</svg>
