<svg width="300" height="88" viewBox="0 0 300 88" fill="none" xmlns="http://www.w3.org/2000/svg" role="img" aria-labelledby="title desc">
  <title id="title">Ocht compact wordmark</title>
  <desc id="desc">Compact Ocht wordmark with a shield eight mark.</desc>
  <rect width="300" height="88" rx="16" fill="#F7FAF2"/>
  <path d="M44 12 L69.5 22.5 V46.5 C69.5 66.5 57.2 81.1 44 86.5 C30.8 81.1 18.5 66.5 18.5 46.5 V22.5 L44 12Z" fill="#C8FF2E"/>
  <path d="M44 26 C55 26 62 31.5 62 40.5 C62 46.8 58.5 51 52.3 53 C59.2 55.8 63.3 61.3 63.3 68.9 C63.3 79.3 55 85.5 44 85.5 C33 85.5 24.7 79.3 24.7 68.9 C24.7 61.3 28.8 55.8 35.7 53 C29.5 51 26 46.8 26 40.5 C26 31.5 33 26 44 26ZM44 33.6 C38.5 33.6 35 36.4 35 40.5 C35 44.7 38.5 47.4 44 47.4 C49.5 47.4 53 44.7 53 40.5 C53 36.4 49.5 33.6 44 33.6ZM44 59.3 C37.8 59.3 33.6 62.7 33.6 68.2 C33.6 73.7 37.8 77.2 44 77.2 C50.2 77.2 54.4 73.7 54.4 68.2 C54.4 62.7 50.2 59.3 44 59.3Z" fill="#0A1711"/>
  <text x="86" y="53" fill="#10130F" font-family="Arial, Helvetica, sans-serif" font-size="42" font-weight="900">Ocht</text>
</svg>
