<svg width="128" height="128" viewBox="0 0 128 128" fill="none" xmlns="http://www.w3.org/2000/svg" role="img" aria-labelledby="title desc">
  <title id="title">Ocht eight trace mark</title>
  <desc id="desc">Ocht standalone shield mark built around a clean eight.</desc>
  <path d="M64 12 L101 27 V61 C101 90 83 111 64 119 C45 111 27 90 27 61 V27 L64 12Z" fill="#C8FF2E"/>
  <path d="M64 34 C80 34 90 42 90 55 C90 64 85 70 76 73 C86 77 92 85 92 96 C92 111 80 120 64 120 C48 120 36 111 36 96 C36 85 42 77 52 73 C43 70 38 64 38 55 C38 42 48 34 64 34ZM64 45 C56 45 51 49 51 55 C51 61 56 65 64 65 C72 65 77 61 77 55 C77 49 72 45 64 45ZM64 82 C55 82 49 87 49 95 C49 103 55 108 64 108 C73 108 79 103 79 95 C79 87 73 82 64 82Z" fill="#0A1711"/>
</svg>
