<svg width="64" height="64" viewBox="0 0 64 64" fill="none" xmlns="http://www.w3.org/2000/svg" role="img" aria-labelledby="title">
  <title id="title">Ocht favicon</title>
  <rect width="64" height="64" rx="14" fill="#F7FAF2"/>
  <path d="M32 6 L50.5 13.5 V30.5 C50.5 45 41.5 55.5 32 59.5 C22.5 55.5 13.5 45 13.5 30.5 V13.5 L32 6Z" fill="#C8FF2E"/>
  <path d="M32 17 C40 17 45 21 45 27.5 C45 32 42.5 35 38 36.5 C43 38.5 46 42.5 46 48 C46 55.5 40 60 32 60 C24 60 18 55.5 18 48 C18 42.5 21 38.5 26 36.5 C21.5 35 19 32 19 27.5 C19 21 24 17 32 17ZM32 22.5 C28 22.5 25.5 24.5 25.5 27.5 C25.5 30.5 28 32.5 32 32.5 C36 32.5 38.5 30.5 38.5 27.5 C38.5 24.5 36 22.5 32 22.5ZM32 41 C27.5 41 24.5 43.5 24.5 47.5 C24.5 51.5 27.5 54 32 54 C36.5 54 39.5 51.5 39.5 47.5 C39.5 43.5 36.5 41 32 41Z" fill="#0A1711"/>
</svg>
